HIERARCHY
ROOT ui
{
	 OFFSET 0 0 0
	 CHANNELS 3 XPosition YPosition Z Position
	 EndSite
	 {
	 OFFSET 0 -1 0
	 }
}
ROOT li
{
	 OFFSET 0 0 0
	 CHANNELS 3 XPosition YPosition Z Position
	 EndSite
	 {
	 OFFSET 0 -1 0
	 }
}
ROOT ul
{
	 OFFSET 0 0 0
	 CHANNELS 3 XPosition YPosition Z Position
	 EndSite
	 {
	 OFFSET 0 -1 0
	 }
}
ROOT ll
{
	 OFFSET 0 0 0
	 CHANNELS 3 XPosition YPosition Z Position
	 EndSite
	 {
	 OFFSET 0 -1 0
	 }
}
ROOT tt
{
	 OFFSET 0 0 0
	 CHANNELS 3 XPosition YPosition Z Position
	 EndSite
	 {
	 OFFSET 0 -1 0
	 }
}
ROOT tb
{
	 OFFSET 0 0 0
	 CHANNELS 3 XPosition YPosition Z Position
	 EndSite
	 {
	 OFFSET 0 -1 0
	 }
}
ROOT td
{
	 OFFSET 0 0 0
	 CHANNELS 3 XPosition YPosition Z Position
	 EndSite
	 {
	 OFFSET 0 -1 0
	 }
}
ROOT v
{
	 OFFSET 0 0 0
	 CHANNELS 3 XPosition YPosition Z Position
	 EndSite
	 {
	 OFFSET 0 -1 0
	 }
}
ROOT bn
{
	 OFFSET 0 0 0
	 CHANNELS 3 XPosition YPosition Z Position
	 EndSite
	 {
	 OFFSET 0 -1 0
	 }
}
MOTION
Frames: 16
Frame Time: 0.002
-1.7345200479030608E-4	1.7604200541973113E-4	0		0.3855068359375	-2.566436767578125	0		-1.152571533203125	-0.1483524932861328	0		-0.7563275756835938	-2.433049560546875	0		1.122587890625	-0.9110697631835938	0		2.6857421875	-0.46126336669921875	0		4.132701171875	-0.032401397705078126	0		5.54068896484375	0.17199455261230467	0		-0.4410284729003906	5.84742578125	0		
-9.73920002579689E-5	2.343759983778E-4	0		0.37033505249023435	-2.564280517578125	0		-1.16844580078125	-0.14102749633789063	0		-0.8324737548828125	-2.4292138671875	0		1.04560009765625	-0.9074202270507813	0		2.685770263671875	-0.46148431396484374	0		4.13581982421875	-0.027800603866577147	0		5.54073095703125	0.1711167755126953	0		-0.40629986572265625	5.85221728515625	0		
-0.0030459320545196534	-0.003677225112915039	0		0.37016384887695314	-2.5642578125	0		-1.16837158203125	-0.1408488311767578	0		-0.760699462890625	-2.43673828125	0		1.1144727783203126	-0.9211067504882813	0		2.68581201171875	-0.46169598388671873	0		4.13285888671875	-0.033131019592285156	0		5.54078125	0.17026792907714844	0		-0.40561871337890626	5.85231884765625	0		
-0.0029448790550231935	-0.0036158061027526858	0		0.37993011474609373	-2.573326171875	0		-1.193367431640625	-0.1494384765625	0		-0.8327667846679687	-2.4289267578125	0		1.0515528564453125	-0.913562744140625	0		2.690999755859375	-0.4479444580078125	0		4.14093798828125	-0.035548133850097655	0		5.54084130859375	0.16945549011230468	0		-0.43899185180664063	5.84773876953125	0		
2.0786799490451813E-4	4.1707900166511536E-4	0		0.3848721923828125	-2.56634814453125	0		-1.1562772216796875	-0.15061720275878906	0		-0.829858642578125	-2.426816650390625	0		1.056639892578125	-0.9076470336914062	0		2.685940673828125	-0.46208547973632813	0		4.14017333984375	-0.02286319160461426	0		5.54381298828125	0.1807296600341797	0		-0.43734213256835935	5.84683154296875	0		
3.384160101413727E-4	4.78318989276886E-4	0		0.374864013671875	-2.557225341796875	0		-1.156159912109375	-0.15045442199707032	0		-0.829941162109375	-2.4266826171875	0		1.056690673828125	-0.9076785278320313	0		2.70506787109375	-0.458442138671875	0		4.13624462890625	-0.029126848220825195	0		5.54099462890625	0.1679654541015625	0		-0.403642333984375	5.85261474609375	0		
4.8578399419784546E-4	5.396270155906677E-4	0		0.4086457214355469	-2.573522216796875	0		-1.0949407958984374	-0.1418878936767578	0		-0.7590635986328125	-2.434238525390625	0		1.110732177734375	-0.9112251586914063	0		2.705177734375	-0.45860244750976564	0		4.1363896484375	-0.029404428482055663	0		5.54108984375	0.16730030822753905	0		-0.4030154724121094	5.85270947265625	0		
6.515070199966431E-4	6.010220050811768E-4	0		0.36970623779296874	-2.564112548828125	0		-1.1718016357421874	-0.14299411010742188	0		-0.8330298461914063	-2.428399658203125	0		1.0428321533203124	-0.9105858764648438	0		2.686270751953125	-0.46256048583984377	0		4.136552734375	-0.029655794143676757	0		5.545408203125	0.14929454040527343	0		-0.40240719604492187	5.85280126953125	0		
-0.0022020249366760253	-0.003307950973510742	0		0.37962591552734376	-2.573174072265625	0		-1.1556954345703125	-0.15000819396972656	0		-0.8330120849609375	-2.42828076171875	0		1.0519249267578126	-0.9136845092773438	0		2.692355224609375	-0.4697430419921875	0		4.13066796875	-0.03682089996337891	0		5.537091796875	0.17836204528808594	0		-0.41977734375	5.85706689453125	0		
0.0010438660383224488	7.239559888839722E-4	0		0.3577716369628906	-2.562919677734375	0		-1.1865360107421874	-0.15356843566894532	0		-0.8179971923828125	-2.43231494140625	0		1.057133544921875	-0.90773828125	0		2.71272900390625	-0.4500479431152344	0		4.1459208984375	-0.032165626525878906	0		5.551474609375	0.1723500061035156	0		-0.41821453857421875	5.85614453125	0		
0.0012735379934310912	7.857900261878968E-4	0		0.40188552856445314	-2.560314453125	0		-1.082290283203125	-0.15147207641601562	0		-0.829843505859375	-2.42608837890625	0		1.0573123779296876	-0.9077354736328125	0		2.67485595703125	-0.4577603759765625	0		4.141228515625	-0.024286392211914063	0		5.537388671875	0.1774622039794922	0		-0.40068798828125	5.8530615234375	0		
0.0015275390148162841	8.48272979259491E-4	0		0.3430057067871094	-2.56068359375	0		-1.1709595947265625	-0.142468994140625	0		-0.8327294311523438	-2.427954833984375	0		1.109458984375	-0.914243408203125	0		2.687036865234375	-0.46294967651367186	0		4.1392919921875	-0.04340799331665039	0		5.54179345703125	0.16489193725585938	0		-0.40014425659179687	5.85314404296875	0		
0.0018070729970932006	9.115890264511108E-4	0		0.3971113586425781	-2.567175537109375	0		-1.170686279296875	-0.14235484313964844	0		-0.8345751342773438	-2.429835205078125	0		1.0377926025390625	-0.9045076293945312	0		2.68729638671875	-0.4630028076171875	0		4.1316298828125	-0.037444290161132814	0		5.541966796875	0.15940361022949218	0		-0.3996109619140625	5.853224609375	0		
-9.27042007446289E-4	-0.002993872880935669	0		0.35329278564453126	-2.569683837890625	0		-1.15848681640625	-0.15236666870117188	0		-0.8323406372070312	-2.427759765625	0		1.0529732666015625	-0.9136327514648438	0		2.698654541015625	-0.4561505432128906	0		4.14698388671875	-0.032686466217041014	0		5.54217919921875	0.15916062927246094	0		-0.45209225463867186	5.85283642578125	0		
0.0024459528923034667	0.0010408780574798584	0		0.3835613708496094	-2.5679326171875	0		-1.1911168212890626	-0.14793153381347657	0		-0.8290660400390625	-2.425697998046875	0		1.0583369140625	-0.9076522827148438	0		2.691952880859375	-0.458101806640625	0		4.13532666015625	-0.03163421821594238	0		5.5453232421875	0.1727389373779297	0		-0.41751162719726564	5.8585732421875	0		
0.002806253910064697	0.0011070899963378906	0		0.35890350341796873	-2.562624267578125	0		-1.1697010498046876	-0.14204544067382813	0		-0.7917940063476563	-2.427983154296875	0		1.1187098388671874	-0.9042216796875	0		2.70236083984375	-0.4522102966308594	0		4.14275634765625	-0.024751752853393556	0		5.54559130859375	0.17605665588378908	0		-0.39705340576171877	5.85244921875	0		
